<?xml version="1.0" encoding="utf-8" ?>
<svg baseProfile="full" height="400" version="1.1" width="300" xmlns="http://www.w3.org/2000/svg" xmlns:ev="http://www.w3.org/2001/xml-events" xmlns:xlink="http://www.w3.org/1999/xlink"><defs /><line stroke="darkgray" stroke-width="2" x1="30" x2="262.5" y1="55.0" y2="55.0" /><line stroke="darkgray" stroke-width="2" x1="30" x2="262.5" y1="119.0" y2="119.0" /><line stroke="darkgray" stroke-width="2" x1="30" x2="262.5" y1="183.0" y2="183.0" /><line stroke="darkgray" stroke-width="2" x1="30" x2="262.5" y1="247.0" y2="247.0" /><line stroke="darkgray" stroke-width="2" x1="30" x2="262.5" y1="311.0" y2="311.0" /><line stroke="darkgray" stroke-width="2" x1="30" x2="262.5" y1="375.0" y2="375.0" /><circle cx="22" cy="147.0" fill="darkslategray" r="2" /><circle cx="22" cy="155.0" fill="darkslategray" r="2" /><circle cx="22" cy="343.0" fill="darkslategray" r="2" /><text fill="dimgray" font-family="Verdana" font-size="24" font-style="italic" font-weight="bold" text-anchor="start" x="264.5" y="59.8">10fr</text><line stroke="darkslategray" stroke-width="3.0" x1="31.5" x2="31.5" y1="45.0" y2="385.0" /><text alignment-baseline="middle" fill="darkslategray" font-family="Verdana" font-size="24" font-weight="bold" text-anchor="middle" x="31.5" y="39.0">X</text><line stroke="darkslategray" stroke-width="2.6666666666666665" x1="76.5" x2="76.5" y1="45.0" y2="385.0" /><line stroke="darkslategray" stroke-width="2.3333333333333335" x1="123.0" x2="123.0" y1="45.0" y2="385.0" /><line stroke="darkslategray" stroke-width="2.0" x1="169.5" x2="169.5" y1="45.0" y2="385.0" /><line stroke="darkslategray" stroke-width="1.6666666666666667" x1="216.0" x2="216.0" y1="45.0" y2="385.0" /><line stroke="darkslategray" stroke-width="1.3333333333333335" x1="261.8333333333333" x2="261.8333333333333" y1="45.0" y2="385.0" /><line stroke="black" stroke-linecap="round" stroke-width="40" x1="169.5" x2="262.5" y1="87.0" y2="87.0" /><line stroke="darkslategray" stroke-linecap="round" stroke-width="36" x1="169.5" x2="262.5" y1="87.0" y2="87.0" /><text alignment-baseline="central" fill="white" font-family="Verdana" font-size="24" font-weight="bold" text-anchor="middle" x="169.5" y="87.0">1</text><circle cx="76.5" cy="343.0" fill="darkslategray" r="18" stroke="black" stroke-width="2" /><text alignment-baseline="central" fill="white" font-family="Verdana" font-size="24" font-weight="bold" text-anchor="middle" x="76.5" y="343.0">4</text><circle cx="123.0" cy="279.0" fill="darkslategray" r="18" stroke="black" stroke-width="2" /><text alignment-baseline="central" fill="white" font-family="Verdana" font-size="24" font-weight="bold" text-anchor="middle" x="123.0" y="279.0">3</text><circle cx="216.0" cy="151.0" fill="darkslategray" r="18" stroke="black" stroke-width="2" /><text alignment-baseline="central" fill="white" font-family="Verdana" font-size="24" font-weight="bold" text-anchor="middle" x="216.0" y="151.0">2</text><text alignment-baseline="central" fill="dimgray" font-family="Verdana" font-size="24" font-weight="bold" text-anchor="middle" x="146.25" y="15.0">C</text></svg>
