<?xml version="1.0" encoding="utf-8" ?>
<svg baseProfile="full" height="400" version="1.1" width="300" xmlns="http://www.w3.org/2000/svg" xmlns:ev="http://www.w3.org/2001/xml-events" xmlns:xlink="http://www.w3.org/1999/xlink"><defs /><line stroke="darkgray" stroke-width="2" x1="55.0" x2="55.0" y1="30" y2="362.5" /><line stroke="darkgray" stroke-width="2" x1="110.0" x2="110.0" y1="30" y2="362.5" /><line stroke="darkgray" stroke-width="2" x1="165.0" x2="165.0" y1="30" y2="362.5" /><line stroke="darkgray" stroke-width="2" x1="220.0" x2="220.0" y1="30" y2="362.5" /><line stroke="darkgray" stroke-width="2" x1="275.0" x2="275.0" y1="30" y2="362.5" /><circle cx="82.5" cy="370.5" fill="darkslategray" r="2" /><circle cx="192.5" cy="370.5" fill="darkslategray" r="2" /><text fill="dimgray" font-family="Verdana" font-size="24" font-style="italic" font-weight="bold" text-anchor="start" x="37.0" y="386.5">4fr</text><line stroke="darkslategray" stroke-width="3.0" x1="45.0" x2="285.0" y1="361.0" y2="361.0" /><line stroke="darkslategray" stroke-width="2.6666666666666665" x1="45.0" x2="285.0" y1="296.0" y2="296.0" /><line stroke="darkslategray" stroke-width="2.3333333333333335" x1="45.0" x2="285.0" y1="229.5" y2="229.5" /><line stroke="darkslategray" stroke-width="2.0" x1="45.0" x2="285.0" y1="163.0" y2="163.0" /><line stroke="darkslategray" stroke-width="1.6666666666666667" x1="45.0" x2="285.0" y1="96.5" y2="96.5" /><line stroke="darkslategray" stroke-width="1.3333333333333335" x1="45.0" x2="285.0" y1="30.666666666666668" y2="30.666666666666668" /><circle cx="82.5" cy="362.5" fill="salmon" r="18" stroke="black" stroke-width="2" /><text alignment-baseline="central" fill="white" font-family="Verdana" font-size="24" font-weight="bold" text-anchor="middle" x="82.5" y="362.5">A</text><circle cx="82.5" cy="296.0" fill="cornflowerblue" r="18" stroke="black" stroke-width="2" /><text alignment-baseline="central" fill="white" font-family="Verdana" font-size="24" font-weight="bold" text-anchor="middle" x="82.5" y="296.0">D</text><circle cx="82.5" cy="229.5" fill="cornflowerblue" r="18" stroke="black" stroke-width="2" /><text alignment-baseline="central" fill="white" font-family="Verdana" font-size="24" font-weight="bold" text-anchor="middle" x="82.5" y="229.5">G</text><circle cx="82.5" cy="163.0" fill="cornflowerblue" r="18" stroke="black" stroke-width="2" /><text alignment-baseline="central" fill="white" font-family="Verdana" font-size="24" font-weight="bold" text-anchor="middle" x="82.5" y="163.0">C</text><circle cx="82.5" cy="96.5" fill="cornflowerblue" r="18" stroke="black" stroke-width="2" /><text alignment-baseline="central" fill="white" font-family="Verdana" font-size="24" font-weight="bold" text-anchor="middle" x="82.5" y="96.5">E</text><circle cx="82.5" cy="30.0" fill="salmon" r="18" stroke="black" stroke-width="2" /><text alignment-baseline="central" fill="white" font-family="Verdana" font-size="24" font-weight="bold" text-anchor="middle" x="82.5" y="30.0">A</text><circle cx="247.5" cy="362.5" fill="cornflowerblue" r="18" stroke="black" stroke-width="2" /><text alignment-baseline="central" fill="white" font-family="Verdana" font-size="24" font-weight="bold" text-anchor="middle" x="247.5" y="362.5">C</text><circle cx="192.5" cy="296.0" fill="cornflowerblue" r="18" stroke="black" stroke-width="2" /><text alignment-baseline="central" fill="white" font-family="Verdana" font-size="24" font-weight="bold" text-anchor="middle" x="192.5" y="296.0">E</text><circle cx="192.5" cy="229.5" fill="salmon" r="18" stroke="black" stroke-width="2" /><text alignment-baseline="central" fill="white" font-family="Verdana" font-size="24" font-weight="bold" text-anchor="middle" x="192.5" y="229.5">A</text><circle cx="192.5" cy="163.0" fill="cornflowerblue" r="18" stroke="black" stroke-width="2" /><text alignment-baseline="central" fill="white" font-family="Verdana" font-size="24" font-weight="bold" text-anchor="middle" x="192.5" y="163.0">D</text><circle cx="247.5" cy="96.5" fill="cornflowerblue" r="18" stroke="black" stroke-width="2" /><text alignment-baseline="central" fill="white" font-family="Verdana" font-size="24" font-weight="bold" text-anchor="middle" x="247.5" y="96.5">G</text><circle cx="247.5" cy="30.0" fill="cornflowerblue" r="18" stroke="black" stroke-width="2" /><text alignment-baseline="central" fill="white" font-family="Verdana" font-size="24" font-weight="bold" text-anchor="middle" x="247.5" y="30.0">C</text></svg>
