<?xml version="1.0" encoding="utf-8" ?>
<svg baseProfile="full" height="400" version="1.1" width="300" xmlns="http://www.w3.org/2000/svg" xmlns:ev="http://www.w3.org/2001/xml-events" xmlns:xlink="http://www.w3.org/1999/xlink"><defs /><line stroke="darkgray" stroke-width="2" x1="30" x2="262.5" y1="135.0" y2="135.0" /><line stroke="darkgray" stroke-width="2" x1="30" x2="262.5" y1="215.0" y2="215.0" /><line stroke="darkgray" stroke-width="2" x1="30" x2="262.5" y1="295.0" y2="295.0" /><line stroke="darkgray" stroke-width="2" x1="30" x2="262.5" y1="375.0" y2="375.0" /><circle cx="22" cy="255.0" fill="darkslategray" r="2" /><line stroke="darkslategray" stroke-width="3.0" x1="31.5" x2="31.5" y1="45.0" y2="385.0" /><text alignment-baseline="middle" fill="darkslategray" font-family="Verdana" font-size="24" font-weight="bold" text-anchor="middle" x="31.5" y="39.0">X</text><line stroke="darkslategray" stroke-width="2.5" x1="107.5" x2="107.5" y1="45.0" y2="385.0" /><line stroke="darkslategray" stroke-width="2.0" x1="185.0" x2="185.0" y1="45.0" y2="385.0" /><line stroke="darkslategray" stroke-width="1.5" x1="261.75" x2="261.75" y1="45.0" y2="385.0" /><line stroke="darkslategray" stroke-width="10" x1="30" x2="262.5" y1="50.0" y2="50.0" /><circle cx="107.5" cy="175.0" fill="darkslategray" r="18" stroke="black" stroke-width="2" /><text alignment-baseline="central" fill="white" font-family="Verdana" font-size="24" font-weight="bold" text-anchor="middle" x="107.5" y="175.0">1</text><circle cx="185.0" cy="255.0" fill="darkslategray" r="18" stroke="black" stroke-width="2" /><text alignment-baseline="central" fill="white" font-family="Verdana" font-size="24" font-weight="bold" text-anchor="middle" x="185.0" y="255.0">3</text><circle cx="262.5" cy="175.0" fill="darkslategray" r="18" stroke="black" stroke-width="2" /><text alignment-baseline="central" fill="white" font-family="Verdana" font-size="24" font-weight="bold" text-anchor="middle" x="262.5" y="175.0">2</text><text alignment-baseline="central" fill="dimgray" font-family="Verdana" font-size="24" font-weight="bold" text-anchor="middle" x="146.25" y="15.0">G</text></svg>
